Patient4_TMGait_0pt5_01_right_11_GRF.mot
version=1
nRows=58
nColumns=19
inDegrees=no
endheader
time	F1x	F1y	F1z	M1x	M1y	M1z	F2x	F2y	F2z	M2x	M2y	M2z	EC1x	EC1y	EC1z	EC2x	EC2y	EC2z
14.12	1.7881	746.8077	38.3294	-263.0015	-28.5898	587.1654	11.2156	-4.451	-1.3234	0.85831	-6.313	-11.1245	-0.0592	0.0182	-0.0073	-0.0462	0.0165	0.9585
14.1336	0.92837	749.5567	43.0103	-264.1449	-32.0759	587.1907	7.3122	-2.0384	-1.1536	0.99295	-3.9694	-6.5648	-0.0592	0.0182	-0.0073	-0.0462	0.0165	0.9585
14.1473	0.036629	753.1143	47.0148	-265.448	-34.9616	587.5168	4.0322	-0.00058228	-0.94655	1.093	-2.0294	-2.7321	-0.0592	0.0182	-0.0073	-0.0462	0.0165	0.9585
14.1609	-0.76298	757.127	50.1477	-266.7812	-37.0815	587.9031	1.5454	1.569	-0.75184	1.1698	-0.57832	0.18244	-0.0592	0.0182	-0.0073	-0.0462	0.0165	0.9585
14.1746	-1.2989	761.065	52.4113	-267.9817	-38.4063	587.9354	-0.17482	2.689	-0.59803	1.2326	0.41291	2.2075	-0.0592	0.0182	-0.0073	-0.0462	0.0165	0.9585
14.1882	-1.3932	764.353	53.9205	-268.8865	-38.9897	587.1484	-1.2443	3.4182	-0.48624	1.2821	1.0184	3.4712	-0.0592	0.0182	-0.0073	-0.0462	0.0165	0.9585
14.2019	-0.88027	766.5081	54.8211	-269.371	-38.9079	585.1478	-1.8384	3.8352	-0.41446	1.3156	1.3425	4.1564	-0.0592	0.0182	-0.0073	-0.0462	0.0165	0.9585
14.2155	0.36208	767.2432	55.2423	-269.375	-38.2274	581.7065	-2.1032	3.9934	-0.37396	1.3224	1.4753	4.403	-0.0592	0.0182	-0.0073	-0.0462	0.0165	0.9585
14.2291	2.3856	766.4744	55.3079	-268.8973	-37.0313	576.7767	-2.1796	3.9263	-0.35933	1.2857	1.4998	4.3255	-0.0592	0.0182	-0.0073	-0.0462	0.0165	0.9585
14.2428	5.1886	764.305	55.1106	-267.9885	-35.3923	570.4638	-2.1717	3.6251	-0.36289	1.179	1.4747	3.9737	-0.0592	0.0182	-0.0073	-0.0462	0.0165	0.9585
14.2564	8.711	761.015	54.7439	-266.7452	-33.3965	563.0289	-2.1348	3.0418	-0.38053	0.96628	1.4378	3.3391	-0.0592	0.0182	-0.0073	-0.0462	0.0165	0.9585
14.2701	12.8736	757.036	54.2824	-265.3045	-31.1195	554.8629	-2.1045	2.1188	-0.40641	0.6101	1.4115	2.4029	-0.0592	0.0182	-0.0073	-0.0462	0.0165	0.9585
14.2837	17.563	752.8906	53.8369	-263.8257	-28.6778	546.4427	-2.0604	0.77915	-0.42733	0.072758	1.3829	1.0998	-0.0592	0.0182	-0.0073	-0.0462	0.0165	0.9585
14.2974	22.6227	749.1188	53.5187	-262.4697	-26.2009	538.2569	-1.9623	-1.0099	-0.42724	-0.66274	1.3183	-0.60063	-0.0592	0.0182	-0.0073	-0.0462	0.0165	0.9585
14.311	27.8697	746.1563	53.4536	-261.3629	-23.8443	530.7045	-1.7272	-3.2018	-0.38251	-1.5756	1.1602	-2.6628	-0.0592	0.0182	-0.0073	-0.0462	0.0165	0.9585
14.3246	33.1029	744.2504	53.73	-260.5742	-21.7414	524.0356	-1.2458	-5.6022	-0.26763	-2.5802	0.83915	-4.9068	-0.0592	0.0182	-0.0073	-0.0462	0.0165	0.9585
14.3383	38.1332	743.381	54.4049	-260.0857	-20.0059	518.2923	-0.40206	-7.7779	-0.053772	-3.49	0.2793	-6.9364	-0.0592	0.0182	-0.0073	-0.0462	0.0165	0.9585
14.3519	42.7916	743.253	55.4843	-259.7889	-18.7017	513.3137	0.94048	-8.9809	0.28273	-3.9849	-0.59261	-8.0834	-0.0592	0.0182	-0.0073	-0.0462	0.0165	0.9585
14.3656	46.9575	743.2999	56.9294	-259.4858	-17.8463	508.7437	2.8726	-8.0556	0.75721	-3.5767	-1.8235	-7.2937	-0.0592	0.0182	-0.0073	-0.0462	0.0165	0.9585
14.3792	50.5549	742.7005	58.64	-258.8925	-17.402	504.0523	5.4141	-3.4082	1.3583	-1.5933	-3.4032	-3.1133	-0.0592	0.0182	-0.0073	-0.0462	0.0165	0.9585
14.3929	53.5366	740.4531	60.4535	-257.6642	-17.287	498.6241	8.4317	6.9487	2.0353	2.8004	-5.2205	6.2773	-0.0592	0.0182	-0.0073	-0.0462	0.0165	0.9585
14.4065	55.8679	735.4299	62.138	-255.4172	-17.3748	491.7792	11.5356	25.2179	2.6762	10.5258	-7.0036	22.9094	-0.0592	0.0182	-0.0073	-0.0462	0.0165	0.9585
14.4201	57.4936	726.4503	63.4174	-251.7528	-17.5235	482.8195	13.9801	53.4242	3.0844	22.4265	-8.2539	48.6493	-0.0592	0.0182	-0.0073	-0.0462	0.0165	0.9585
14.4338	58.3341	712.3587	63.9655	-246.2892	-17.5621	471.0622	14.5344	92.8691	3.0187	39.0334	-8.2389	84.7266	-0.0592	0.0182	-0.0073	-0.0462	0.0165	0.9585
14.4474	58.2846	692.0822	63.4743	-238.6825	-17.339	455.874	11.8234	143.3468	2.1998	60.2402	-6.1414	130.9965	-0.0592	0.0182	-0.0073	-0.0462	0.0165	0.9585
14.4611	57.2481	664.7399	61.6841	-228.6662	-16.7216	436.7088	5.2585	202.724	0.29403	85.1151	-1.4323	185.5431	-0.0592	0.0182	-0.0073	-0.0462	0.0165	0.9585
14.4747	55.1821	629.7154	58.4716	-216.0784	-15.6378	413.109	-4.2445	266.7038	-2.9871	111.8177	5.749	244.3389	-0.0592	0.0182	-0.0073	-0.0462	0.0165	0.9585
14.4884	52.1144	586.786	53.8895	-200.8978	-14.0937	384.799	-15.0627	329.7947	-7.6617	138.0427	14.6989	302.087	-0.0592	0.0182	-0.0073	-0.0462	0.0165	0.9585
14.502	48.0867	536.2661	48.1866	-183.2723	-12.2061	351.8156	-25.6437	388.1501	-13.2291	162.182	24.2591	354.9899	-0.0592	0.0182	-0.0073	-0.0462	0.0165	0.9585
14.5156	43.1004	479.0051	41.8057	-163.4981	-10.2347	314.5698	-34.9483	440.4553	-19.0828	183.6926	33.4092	401.679	-0.0592	0.0182	-0.0073	-0.0462	0.0165	0.9585
14.5293	37.1869	416.4888	35.2482	-142.0552	-8.4588	273.9366	-42.4183	487.2576	-24.7385	202.802	41.4625	442.6035	-0.0592	0.0182	-0.0073	-0.0462	0.0165	0.9585
14.5429	30.4556	350.8895	28.9618	-119.6424	-7.107	231.2632	-47.7966	530.0394	-29.9248	220.1111	48.0723	479.109	-0.0592	0.0182	-0.0073	-0.0462	0.0165	0.9585
14.5566	23.1057	284.9453	23.231	-97.1521	-6.275	188.3044	-51.0549	570.3517	-34.6686	236.2277	53.2696	512.6545	-0.0592	0.0182	-0.0073	-0.0462	0.0165	0.9585
14.5702	15.5041	221.696	18.2388	-75.5884	-5.9533	147.0261	-52.4116	609.177	-39.1818	251.5094	57.3538	544.2562	-0.0592	0.0182	-0.0073	-0.0462	0.0165	0.9585
14.5839	8.2062	164.1084	14.0488	-55.9447	-5.9919	109.3576	-52.28	646.602	-43.7804	265.9417	60.7954	574.1856	-0.0592	0.0182	-0.0073	-0.0462	0.0165	0.9585
14.5975	1.8985	114.5302	10.6366	-39.0197	-6.1389	76.8312	-51.191	681.8155	-48.6524	279.1588	63.9886	601.9502	-0.0592	0.0182	-0.0073	-0.0462	0.0165	0.9585
14.6111	-2.8009	74.212	7.8743	-25.2508	-6.0989	50.2568	-49.6535	713.3855	-53.8074	290.5769	67.1596	626.492	-0.0592	0.0182	-0.0073	-0.0462	0.0165	0.9585
14.6248	-5.6006	43.2873	5.5972	-14.6947	-5.6676	29.7478	-48.0261	739.8095	-58.9569	299.6279	70.2126	646.6494	-0.0592	0.0182	-0.0073	-0.0462	0.0165	0.9585
14.6384	-6.5599	21.0471	3.6888	-7.1142	-4.801	14.8738	-46.4751	759.9055	-63.6007	305.9174	72.8012	661.4739	-0.0592	0.0182	-0.0073	-0.0462	0.0165	0.9585
14.6521	-6.1476	6.3188	2.1258	-2.1058	-3.656	4.9066	-45.0413	772.9609	-67.1881	309.2679	74.4926	670.3585	-0.0592	0.0182	-0.0073	-0.0462	0.0165	0.9585
14.6657	-5.0348	-2.3277	0.97347	0.82653	-2.5233	-1.0421	-43.7333	778.8213	-69.3338	309.7332	74.9915	673.136	-0.0592	0.0182	-0.0073	-0.0462	0.0165	0.9585
14.6794	-3.694	-6.4944	0.21034	2.2304	-1.5607	-3.9959	-42.5595	778.0536	-69.9025	307.6478	74.2268	670.2221	-0.0592	0.0182	-0.0073	-0.0462	0.0165	0.9585
14.693	-2.4262	-7.6706	-0.2312	2.6145	-0.83071	-4.9143	-41.5184	772.0707	-68.9709	303.6666	72.3071	662.7362	-0.0592	0.0182	-0.0073	-0.0462	0.0165	0.9585
14.7066	-1.3669	-7.0753	-0.44017	2.3953	-0.3241	-4.612	-40.6053	763.0085	-66.7168	298.7151	69.42	652.4075	-0.0592	0.0182	-0.0073	-0.0462	0.0165	0.9585
14.7203	-0.56761	-5.6141	-0.48547	1.8827	-0.014249	-3.6971	-39.8208	753.4158	-63.3668	293.859	65.7834	641.3111	-0.0592	0.0182	-0.0073	-0.0462	0.0165	0.9585
14.7339	-0.022264	-3.8887	-0.43983	1.2835	0.15364	-2.5758	-39.1571	745.7785	-59.193	290.1087	61.6386	631.472	-0.0592	0.0182	-0.0073	-0.0462	0.0165	0.9585
14.7476	0.3184	-2.2647	-0.34628	0.72437	0.22535	-1.5056	-38.5932	741.9802	-54.5137	288.2039	57.2443	624.419	-0.0592	0.0182	-0.0073	-0.0462	0.0165	0.9585
14.7612	0.49441	-0.91842	-0.2461	0.26728	0.24431	-0.60911	-38.0839	742.947	-49.671	288.4758	52.8558	620.8923	-0.0592	0.0182	-0.0073	-0.0462	0.0165	0.9585
14.7749	0.55994	0.090096	-0.15712	-0.069486	0.23678	0.063223	-37.5328	748.5626	-44.9811	290.8212	48.6769	620.7827	-0.0592	0.0182	-0.0073	-0.0462	0.0165	0.9585
14.7885	0.55429	0.77785	-0.091884	-0.29758	0.22208	0.53415	-36.8036	757.839	-40.7176	294.7761	44.8524	623.2896	-0.0592	0.0182	-0.0073	-0.0462	0.0165	0.9585
14.8021	0.51457	1.202	-0.050272	-0.43874	0.20838	0.84617	-35.7365	769.1633	-37.1013	299.6255	41.4693	627.1258	-0.0592	0.0182	-0.0073	-0.0462	0.0165	0.9585
14.8158	0.46688	1.4292	-0.03058	-0.51497	0.20178	1.0336	-34.1992	780.6249	-34.2874	304.5413	38.5798	630.8099	-0.0592	0.0182	-0.0073	-0.0462	0.0165	0.9585
14.8294	0.41746	1.5334	-0.032423	-0.54832	0.20339	1.1504	-32.1279	790.3941	-32.3269	308.7406	36.1831	632.9837	-0.0592	0.0182	-0.0073	-0.0462	0.0165	0.9585
14.8431	0.37728	1.5656	-0.051945	-0.55406	0.21278	1.2185	-29.5249	797.0185	-31.1754	311.6044	34.2328	632.6194	-0.0592	0.0182	-0.0073	-0.0462	0.0165	0.9585
14.8567	0.3424	1.5602	-0.08303	-0.54224	0.22354	1.2599	-26.4518	799.6035	-30.7187	312.7517	32.6537	629.1288	-0.0592	0.0182	-0.0073	-0.0462	0.0165	0.9585
14.8704	0.30674	1.5211	-0.11626	-0.51648	0.22665	1.2655	-22.9945	797.9246	-30.8172	312.0868	31.3628	622.4361	-0.0592	0.0182	-0.0073	-0.0462	0.0165	0.9585
14.884	0.25959	1.43	-0.1306	-0.47434	0.20421	1.2121	-19.2546	792.4636	-31.3284	309.8071	30.2804	613.0067	-0.0592	0.0182	-0.0073	-0.0462	0.0165	0.9585
14.8976	0.19194	1.2591	-0.11535	-0.40905	0.14945	1.0772	-15.3362	784.2526	-32.1265	306.3354	29.3408	601.7055	-0.0592	0.0182	-0.0073	-0.0462	0.0165	0.9585
